<svg xmlns="http://www.w3.org/2000/svg" width="82.076" height="100.839" viewBox="0 0 82.076 100.839"><defs><style>.a,.d{fill:#4f3c45;}.b{fill:none;stroke:#4f3c45;stroke-linecap:round;stroke-width:1.5px;}.c{fill:#dab565;}.e,.f{stroke:none;}.f{fill:#4f3c45;}</style></defs><g transform="translate(0 0.862)"><g class="a" transform="translate(43.217 41.885) rotate(14)"><path class="e" d="M 1.531052470207214 4.870819568634033 L 0.6282317042350769 1.01939868927002 L 30.21689987182617 0.5087115168571472 L 30.21689987182617 4.200523376464844 L 1.531052470207214 4.870819568634033 Z"/><path class="f" d="M 29.71689987182617 1.017410278320312 L 1.256473541259766 1.50862455368042 L 1.925214767456055 4.361466407775879 L 29.71689987182617 3.712063789367676 L 29.71689987182617 1.017410278320312 M 30.71689987182617 2.86102294921875e-06 L 30.71689987182617 4.688972949981689 L 1.136899948120117 5.380162715911865 L 0 0.5301628112792969 L 30.71689987182617 2.86102294921875e-06 Z"/></g><g class="a" transform="matrix(0.951, 0.309, -0.309, 0.951, 10.021, 45.724)"><path class="e" d="M 7.343835353851318 31.80470085144043 L 0.6669977307319641 11.31780433654785 L 35.08718490600586 7.718050956726074 L 35.68223571777344 7.655820846557617 L 35.51532363891602 7.081270694732666 L 34.43572998046875 3.365113735198975 L 71.76425933837891 0.5282498002052307 L 75.12921905517578 10.77257633209229 L 7.343835353851318 31.80470085144043 Z"/><path class="f" d="M 71.41149139404297 1.056493759155273 L 35.08768844604492 3.81700325012207 L 36.32930374145508 8.090871810913086 L 1.333984375 11.75077247619629 L 7.666473388671875 31.18107986450195 L 74.49555206298828 10.44567680358887 L 71.41149139404297 1.056493759155273 M 72.11702728271484 -7.62939453125e-06 L 75.76287078857422 11.09948348999023 L 7.021194458007812 32.42831802368164 L 0 10.88482666015625 L 35.03517913818359 7.220760345458984 L 33.78377914428711 2.913215637207031 L 72.11702728271484 -7.62939453125e-06 Z"/></g><g class="a" transform="matrix(0.921, 0.391, -0.391, 0.921, 10.773, 33.084)"><path class="e" d="M 3.559070110321045 17.34954643249512 L 0.7153306007385254 10.73746299743652 L 68.00565338134766 0.5828986763954163 L 67.87775421142578 6.944002151489258 L 3.559070110321045 17.34954643249512 Z"/><path class="f" d="M 3.864276647567749 16.79367256164551 L 67.38623809814453 6.517021656036377 L 67.49383544921875 1.16579532623291 L 1.430657625198364 11.13517475128174 L 3.864276647567749 16.79367256164551 M 3.253859519958496 17.90542221069336 L -5.285644419927849e-07 10.33975219726562 L 68.51747894287109 2.059020971501013e-06 L 68.36927032470703 7.37098217010498 L 3.253859519958496 17.90542221069336 Z"/></g><path class="b" d="M20.439,4.155A12.171,12.171,0,0,0,9.25.149,11.628,11.628,0,0,0,0,7.945" transform="translate(55.404 0) rotate(7)"/><path class="b" d="M0,3.022a10.709,10.709,0,0,0,9.263,2.1C15.141,3.961,16.567,0,16.567,0" transform="translate(38.792 14.647) rotate(8)"/><path class="b" d="M0,1.3S5.391,5.385,9.791,4.254A12.153,12.153,0,0,0,16.365,0" transform="translate(54.996 8.177) rotate(163)"/><path class="b" d="M0,0S4.926,5.588,10.821,4.8s8.392-3.686,8.392-3.686" transform="matrix(-0.988, 0.156, -0.156, -0.988, 34.981, 11.991)"/><path class="b" d="M0,0A29.2,29.2,0,0,0,5.946,2.244C8.48,2.75,12.93,1.3,12.93,1.3" transform="matrix(0.988, -0.156, 0.156, 0.988, 21.89, 20.677)"/><path class="b" d="M0,1.016S5.393,4.5,9.786,3.286,15.643,0,15.643,0" transform="matrix(0.914, -0.407, 0.407, 0.914, 54.996, 15.417)"/><g class="a" transform="translate(70.605 14.071)"><path class="e" d="M 7.825849533081055 65.09109497070312 L 0.3738643527030945 64.65157318115234 L 0.6412391662597656 0.6361087560653687 C 1.403472423553467 0.8096005320549011 2.739278316497803 1.073079466819763 3.983457326889038 1.116801381111145 C 4.068117141723633 1.119781374931335 4.15637731552124 1.121281385421753 4.245787143707275 1.121281385421753 C 5.499959468841553 1.121281385421753 6.948971748352051 0.8304491639137268 7.760546207427979 0.6407906413078308 L 7.825849533081055 65.09109497070312 Z"/><path class="f" d="M 1.138659000396729 1.253616333007812 L 0.8758316040039062 64.18029022216797 L 7.325311660766602 64.56069183349609 L 7.26117467880249 1.261848449707031 C 6.413170337677002 1.435897827148438 5.269635200500488 1.621284484863281 4.245787620544434 1.621284484863281 C 4.150547504425049 1.621284484863281 4.056387424468994 1.619674682617188 3.965897083282471 1.616493225097656 C 2.972244739532471 1.581573486328125 1.92438793182373 1.411346435546875 1.138659000396729 1.253616333007812 M 0.1438875198364258 0 C 0.1438875198364258 0 2.195737361907959 0.5536727905273438 4.001017093658447 0.6171112060546875 C 5.806324005126953 0.6805267333984375 8.259897232055664 0 8.259897232055664 0 L 8.326387405395508 65.62148284912109 L -0.12811279296875 65.12281799316406 L 0.1438875198364258 0 Z"/></g><path class="c" d="M-.747-.346s.456.379,2.583.379a23.9,23.9,0,0,1,3.792.3l.043,64.754H-.747Z" transform="translate(73.058 14.607)"/><path class="d" d="M.362,1.821A12.226,12.226,0,0,1,3.936,1.08a10.736,10.736,0,0,1,3.458.588l.792.827L6.553,3.616s-4.1.435-5.277,0-1.9-1.6.15-.931S6.553,2.52,6.553,2.52l-.546-.53a6.168,6.168,0,0,0-2.071-.322,4.786,4.786,0,0,0-1.862.322c-.608.343-.456.614-.8.7S.04,3.018.04,3.018-.235,2.092.362,1.821Z" transform="translate(70.773 11.708)"/></g></svg>